<svg xmlns="http://www.w3.org/2000/svg" viewBox="0 0 600 600"><defs><style>.cls-1{fill:#fff;}</style></defs><g id="Layer_2" data-name="Layer 2"><path class="cls-1" d="M448,400.09v42.2c0,9.68-2.88,36.36-8.62,40s-15,5.45-27.67,5.45h-3.08V442.06q0-23.43-10.16-32.42t-29.43-9H330.51q-10.68,0-16.28-3.38t-5.6-11.46v-4.64h-25v4.64q0,8.07-5.6,11.46t-16.54,3.38H223.21q-19.28,0-29.43,9t-10.16,32.42v45.67h-4.2q-19.5,0-27.9-5.45c-5.59-3.63-8.39-30.31-8.39-40v-42.2H99.57v47.19c0,27.22,5.9,66.08,17.69,76.52s28.89,15.65,51.27,15.65h67.15q18.62,0,28.36,5.9t9.75,20v24.5h43.56v-24.5q0-14.05,9.75-20t28.81-5.9H422.6q33.57,0,51.27-15.65c11.8-10.44,17.7-49.3,17.7-76.52V400.09Zm-132,98.3q-15.42,10.67-20,35.16-5.44-24.49-20.87-35.16t-44.46-10.66H208.62v-42.8c0-5.56,1.66-9.38,4.95-11.46s8.6-3.13,15.89-3.13h29.43q16.67,0,25.52-6.12T295.87,404q3.12,14.06,12,20.18t25.52,6.12H362.8q11.2,0,16,3.13t4.82,11.46v42.8H360.45Q331.41,487.73,316,498.39Z"/><path class="cls-1" d="M98.43,365.62h.16Q98,351,98,335.93c0-5.56,0-11,.09-16.23a28.13,28.13,0,0,1-27.82-28.13c0-15.53,13.78-28,29.31-28.13h.84a378.2,378.2,0,0,1,5.61-43l-.29,0c19.43-95,98.71-166.23,190.4-166.23S466.21,125.35,485.41,220.4h-.1a378.36,378.36,0,0,1,5.6,43h.84c15.53.1,29.31,12.6,29.31,28.13a28.13,28.13,0,0,1-27.82,28.13c.06,5.27.1,10.67.1,16.23q0,15.06-.6,29.68h.15c40.53,0,73.38-31.68,73.38-72.21A73.45,73.45,0,0,0,534.52,233C516.42,106.37,415,9.42,296,9.42c-118.81,0-220.15,96.69-238.46,223.05a73.78,73.78,0,0,0-18.71,18.17,73,73,0,0,0-13.77,42.77C25.05,333.94,57.9,365.62,98.43,365.62Z"/><circle class="cls-1" cx="207.4" cy="298.76" r="37.73"/><circle class="cls-1" cx="385.34" cy="298.76" r="37.73"/></g></svg>